<mxfile host="app.diagrams.net" modified="2020-12-12T15:11:31.457Z" agent="5.0 (Windows NT 10.0; Win64; x64) AppleWebKit/537.36 (KHTML, like Gecko) Chrome/87.0.4280.88 Safari/537.36" etag="duY4UbZdoBcXnKv6fkjs" version="14.0.1" type="github" pages="3">
  <diagram id="KBw6N98JCo3CcMUHHObM" name="Page-1">
    <mxGraphModel dx="1038" dy="580" grid="0" gridSize="10" guides="1" tooltips="1" connect="1" arrows="1" fold="1" page="0" pageScale="1" pageWidth="827" pageHeight="1169" background="none" math="0" shadow="0">
      <root>
        <mxCell id="0" />
        <mxCell id="1" parent="0" />
        <mxCell id="5c0rO-s0wgWKJhMPPycN-14" value="page_view" style="text;strokeColor=none;fillColor=none;html=1;fontSize=24;fontStyle=1;verticalAlign=middle;align=center;fontFamily=Comic Sans MS;fontColor=#1D3557;" parent="1" vertex="1">
          <mxGeometry x="220" y="180" width="100" height="40" as="geometry" />
        </mxCell>
        <mxCell id="5c0rO-s0wgWKJhMPPycN-19" value="" style="shape=table;html=1;whiteSpace=wrap;startSize=0;container=1;collapsible=0;childLayout=tableLayout;fontSize=20;fontFamily=Comic Sans MS;fillColor=#A8DADC;strokeColor=#457B9D;fontColor=#1D3557;" parent="1" vertex="1">
          <mxGeometry x="130" y="240" width="270" height="190" as="geometry" />
        </mxCell>
        <mxCell id="5c0rO-s0wgWKJhMPPycN-20" value="" style="shape=partialRectangle;html=1;whiteSpace=wrap;collapsible=0;dropTarget=0;pointerEvents=0;fillColor=none;top=0;left=0;bottom=0;right=0;points=[[0,0.5],[1,0.5]];portConstraint=eastwest;fontFamily=Comic Sans MS;fontSize=20;strokeColor=#457B9D;fontColor=#1D3557;" parent="5c0rO-s0wgWKJhMPPycN-19" vertex="1">
          <mxGeometry width="270" height="45" as="geometry" />
        </mxCell>
        <mxCell id="5c0rO-s0wgWKJhMPPycN-21" value="pageid" style="shape=partialRectangle;html=1;whiteSpace=wrap;connectable=0;overflow=hidden;fillColor=none;top=0;left=0;bottom=0;right=0;fontSize=20;fontFamily=Comic Sans MS;strokeColor=#457B9D;fontColor=#1D3557;" parent="5c0rO-s0wgWKJhMPPycN-20" vertex="1">
          <mxGeometry width="90" height="45" as="geometry" />
        </mxCell>
        <mxCell id="5c0rO-s0wgWKJhMPPycN-22" value="userid" style="shape=partialRectangle;html=1;whiteSpace=wrap;connectable=0;overflow=hidden;fillColor=none;top=0;left=0;bottom=0;right=0;fontFamily=Comic Sans MS;fontSize=20;strokeColor=#457B9D;fontColor=#1D3557;" parent="5c0rO-s0wgWKJhMPPycN-20" vertex="1">
          <mxGeometry x="90" width="90" height="45" as="geometry" />
        </mxCell>
        <mxCell id="5c0rO-s0wgWKJhMPPycN-23" value="time" style="shape=partialRectangle;html=1;whiteSpace=wrap;connectable=0;overflow=hidden;fillColor=none;top=0;left=0;bottom=0;right=0;fontFamily=Comic Sans MS;fontSize=20;strokeColor=#457B9D;fontColor=#1D3557;" parent="5c0rO-s0wgWKJhMPPycN-20" vertex="1">
          <mxGeometry x="180" width="90" height="45" as="geometry" />
        </mxCell>
        <mxCell id="5c0rO-s0wgWKJhMPPycN-24" value="" style="shape=partialRectangle;html=1;whiteSpace=wrap;collapsible=0;dropTarget=0;pointerEvents=0;fillColor=none;top=0;left=0;bottom=0;right=0;points=[[0,0.5],[1,0.5]];portConstraint=eastwest;fontFamily=Comic Sans MS;fontSize=20;strokeColor=#457B9D;fontColor=#1D3557;" parent="5c0rO-s0wgWKJhMPPycN-19" vertex="1">
          <mxGeometry y="45" width="270" height="45" as="geometry" />
        </mxCell>
        <mxCell id="5c0rO-s0wgWKJhMPPycN-25" value="1" style="shape=partialRectangle;html=1;whiteSpace=wrap;connectable=0;overflow=hidden;fillColor=none;top=0;left=0;bottom=0;right=0;fontFamily=Comic Sans MS;fontSize=20;strokeColor=#457B9D;fontColor=#1D3557;" parent="5c0rO-s0wgWKJhMPPycN-24" vertex="1">
          <mxGeometry width="90" height="45" as="geometry" />
        </mxCell>
        <mxCell id="5c0rO-s0wgWKJhMPPycN-26" value="111" style="shape=partialRectangle;html=1;whiteSpace=wrap;connectable=0;overflow=hidden;fillColor=none;top=0;left=0;bottom=0;right=0;fontFamily=Comic Sans MS;fontSize=20;strokeColor=#457B9D;fontColor=#1D3557;" parent="5c0rO-s0wgWKJhMPPycN-24" vertex="1">
          <mxGeometry x="90" width="90" height="45" as="geometry" />
        </mxCell>
        <mxCell id="5c0rO-s0wgWKJhMPPycN-27" value="9:08:01" style="shape=partialRectangle;html=1;whiteSpace=wrap;connectable=0;overflow=hidden;fillColor=none;top=0;left=0;bottom=0;right=0;fontFamily=Comic Sans MS;fontSize=20;strokeColor=#457B9D;fontColor=#1D3557;" parent="5c0rO-s0wgWKJhMPPycN-24" vertex="1">
          <mxGeometry x="180" width="90" height="45" as="geometry" />
        </mxCell>
        <mxCell id="5c0rO-s0wgWKJhMPPycN-28" value="" style="shape=partialRectangle;html=1;whiteSpace=wrap;collapsible=0;dropTarget=0;pointerEvents=0;fillColor=none;top=0;left=0;bottom=0;right=0;points=[[0,0.5],[1,0.5]];portConstraint=eastwest;fontFamily=Comic Sans MS;fontSize=20;strokeColor=#457B9D;fontColor=#1D3557;" parent="5c0rO-s0wgWKJhMPPycN-19" vertex="1">
          <mxGeometry y="90" width="270" height="45" as="geometry" />
        </mxCell>
        <mxCell id="5c0rO-s0wgWKJhMPPycN-29" value="2" style="shape=partialRectangle;html=1;whiteSpace=wrap;connectable=0;overflow=hidden;fillColor=none;top=0;left=0;bottom=0;right=0;fontFamily=Comic Sans MS;fontSize=20;strokeColor=#457B9D;fontColor=#1D3557;" parent="5c0rO-s0wgWKJhMPPycN-28" vertex="1">
          <mxGeometry width="90" height="45" as="geometry" />
        </mxCell>
        <mxCell id="5c0rO-s0wgWKJhMPPycN-30" value="111" style="shape=partialRectangle;html=1;whiteSpace=wrap;connectable=0;overflow=hidden;fillColor=none;top=0;left=0;bottom=0;right=0;fontFamily=Comic Sans MS;fontSize=20;strokeColor=#457B9D;fontColor=#1D3557;" parent="5c0rO-s0wgWKJhMPPycN-28" vertex="1">
          <mxGeometry x="90" width="90" height="45" as="geometry" />
        </mxCell>
        <mxCell id="5c0rO-s0wgWKJhMPPycN-31" value="9:08:13" style="shape=partialRectangle;html=1;whiteSpace=wrap;connectable=0;overflow=hidden;fillColor=none;top=0;left=0;bottom=0;right=0;fontFamily=Comic Sans MS;fontSize=20;strokeColor=#457B9D;fontColor=#1D3557;" parent="5c0rO-s0wgWKJhMPPycN-28" vertex="1">
          <mxGeometry x="180" width="90" height="45" as="geometry" />
        </mxCell>
        <mxCell id="5c0rO-s0wgWKJhMPPycN-32" value="" style="shape=partialRectangle;html=1;whiteSpace=wrap;collapsible=0;dropTarget=0;pointerEvents=0;fillColor=none;top=0;left=0;bottom=0;right=0;points=[[0,0.5],[1,0.5]];portConstraint=eastwest;fontFamily=Comic Sans MS;fontSize=20;strokeColor=#457B9D;fontColor=#1D3557;" parent="5c0rO-s0wgWKJhMPPycN-19" vertex="1">
          <mxGeometry y="135" width="270" height="55" as="geometry" />
        </mxCell>
        <mxCell id="5c0rO-s0wgWKJhMPPycN-33" value="1" style="shape=partialRectangle;html=1;whiteSpace=wrap;connectable=0;overflow=hidden;fillColor=none;top=0;left=0;bottom=0;right=0;fontFamily=Comic Sans MS;fontSize=20;strokeColor=#457B9D;fontColor=#1D3557;" parent="5c0rO-s0wgWKJhMPPycN-32" vertex="1">
          <mxGeometry width="90" height="55" as="geometry" />
        </mxCell>
        <mxCell id="5c0rO-s0wgWKJhMPPycN-34" value="222" style="shape=partialRectangle;html=1;whiteSpace=wrap;connectable=0;overflow=hidden;fillColor=none;top=0;left=0;bottom=0;right=0;fontFamily=Comic Sans MS;fontSize=20;strokeColor=#457B9D;fontColor=#1D3557;" parent="5c0rO-s0wgWKJhMPPycN-32" vertex="1">
          <mxGeometry x="90" width="90" height="55" as="geometry" />
        </mxCell>
        <mxCell id="5c0rO-s0wgWKJhMPPycN-35" value="9:08:14" style="shape=partialRectangle;html=1;whiteSpace=wrap;connectable=0;overflow=hidden;fillColor=none;top=0;left=0;bottom=0;right=0;fontFamily=Comic Sans MS;fontSize=20;strokeColor=#457B9D;fontColor=#1D3557;" parent="5c0rO-s0wgWKJhMPPycN-32" vertex="1">
          <mxGeometry x="180" width="90" height="55" as="geometry" />
        </mxCell>
        <mxCell id="5c0rO-s0wgWKJhMPPycN-36" value="user" style="text;strokeColor=none;fillColor=none;html=1;fontSize=24;fontStyle=1;verticalAlign=middle;align=center;fontFamily=Comic Sans MS;fontColor=#1D3557;" parent="1" vertex="1">
          <mxGeometry x="225" y="490" width="100" height="40" as="geometry" />
        </mxCell>
        <mxCell id="5c0rO-s0wgWKJhMPPycN-37" value="" style="shape=table;html=1;whiteSpace=wrap;startSize=0;container=1;collapsible=0;childLayout=tableLayout;fontSize=20;fontFamily=Comic Sans MS;fillColor=#A8DADC;strokeColor=#457B9D;fontColor=#1D3557;" parent="1" vertex="1">
          <mxGeometry x="135" y="550" width="270" height="140" as="geometry" />
        </mxCell>
        <mxCell id="5c0rO-s0wgWKJhMPPycN-38" value="" style="shape=partialRectangle;html=1;whiteSpace=wrap;collapsible=0;dropTarget=0;pointerEvents=0;fillColor=none;top=0;left=0;bottom=0;right=0;points=[[0,0.5],[1,0.5]];portConstraint=eastwest;fontFamily=Comic Sans MS;fontSize=20;strokeColor=#457B9D;fontColor=#1D3557;" parent="5c0rO-s0wgWKJhMPPycN-37" vertex="1">
          <mxGeometry width="270" height="50" as="geometry" />
        </mxCell>
        <mxCell id="5c0rO-s0wgWKJhMPPycN-39" value="userid" style="shape=partialRectangle;html=1;whiteSpace=wrap;connectable=0;overflow=hidden;fillColor=none;top=0;left=0;bottom=0;right=0;fontSize=20;fontFamily=Comic Sans MS;strokeColor=#457B9D;fontColor=#1D3557;" parent="5c0rO-s0wgWKJhMPPycN-38" vertex="1">
          <mxGeometry width="90" height="50" as="geometry" />
        </mxCell>
        <mxCell id="5c0rO-s0wgWKJhMPPycN-40" value="age" style="shape=partialRectangle;html=1;whiteSpace=wrap;connectable=0;overflow=hidden;fillColor=none;top=0;left=0;bottom=0;right=0;fontFamily=Comic Sans MS;fontSize=20;strokeColor=#457B9D;fontColor=#1D3557;" parent="5c0rO-s0wgWKJhMPPycN-38" vertex="1">
          <mxGeometry x="90" width="90" height="50" as="geometry" />
        </mxCell>
        <mxCell id="5c0rO-s0wgWKJhMPPycN-41" value="gender" style="shape=partialRectangle;html=1;whiteSpace=wrap;connectable=0;overflow=hidden;fillColor=none;top=0;left=0;bottom=0;right=0;fontFamily=Comic Sans MS;fontSize=20;strokeColor=#457B9D;fontColor=#1D3557;" parent="5c0rO-s0wgWKJhMPPycN-38" vertex="1">
          <mxGeometry x="180" width="90" height="50" as="geometry" />
        </mxCell>
        <mxCell id="5c0rO-s0wgWKJhMPPycN-42" value="" style="shape=partialRectangle;html=1;whiteSpace=wrap;collapsible=0;dropTarget=0;pointerEvents=0;fillColor=none;top=0;left=0;bottom=0;right=0;points=[[0,0.5],[1,0.5]];portConstraint=eastwest;fontFamily=Comic Sans MS;fontSize=20;strokeColor=#457B9D;fontColor=#1D3557;" parent="5c0rO-s0wgWKJhMPPycN-37" vertex="1">
          <mxGeometry y="50" width="270" height="45" as="geometry" />
        </mxCell>
        <mxCell id="5c0rO-s0wgWKJhMPPycN-43" value="111" style="shape=partialRectangle;html=1;whiteSpace=wrap;connectable=0;overflow=hidden;fillColor=none;top=0;left=0;bottom=0;right=0;fontFamily=Comic Sans MS;fontSize=20;strokeColor=#457B9D;fontColor=#1D3557;" parent="5c0rO-s0wgWKJhMPPycN-42" vertex="1">
          <mxGeometry width="90" height="45" as="geometry" />
        </mxCell>
        <mxCell id="5c0rO-s0wgWKJhMPPycN-44" value="25" style="shape=partialRectangle;html=1;whiteSpace=wrap;connectable=0;overflow=hidden;fillColor=none;top=0;left=0;bottom=0;right=0;fontFamily=Comic Sans MS;fontSize=20;strokeColor=#457B9D;fontColor=#1D3557;" parent="5c0rO-s0wgWKJhMPPycN-42" vertex="1">
          <mxGeometry x="90" width="90" height="45" as="geometry" />
        </mxCell>
        <mxCell id="5c0rO-s0wgWKJhMPPycN-45" value="female" style="shape=partialRectangle;html=1;whiteSpace=wrap;connectable=0;overflow=hidden;fillColor=none;top=0;left=0;bottom=0;right=0;fontFamily=Comic Sans MS;fontSize=20;strokeColor=#457B9D;fontColor=#1D3557;" parent="5c0rO-s0wgWKJhMPPycN-42" vertex="1">
          <mxGeometry x="180" width="90" height="45" as="geometry" />
        </mxCell>
        <mxCell id="5c0rO-s0wgWKJhMPPycN-46" value="" style="shape=partialRectangle;html=1;whiteSpace=wrap;collapsible=0;dropTarget=0;pointerEvents=0;fillColor=none;top=0;left=0;bottom=0;right=0;points=[[0,0.5],[1,0.5]];portConstraint=eastwest;fontFamily=Comic Sans MS;fontSize=20;strokeColor=#457B9D;fontColor=#1D3557;" parent="5c0rO-s0wgWKJhMPPycN-37" vertex="1">
          <mxGeometry y="95" width="270" height="45" as="geometry" />
        </mxCell>
        <mxCell id="5c0rO-s0wgWKJhMPPycN-47" value="222" style="shape=partialRectangle;html=1;whiteSpace=wrap;connectable=0;overflow=hidden;fillColor=none;top=0;left=0;bottom=0;right=0;fontFamily=Comic Sans MS;fontSize=20;strokeColor=#457B9D;fontColor=#1D3557;" parent="5c0rO-s0wgWKJhMPPycN-46" vertex="1">
          <mxGeometry width="90" height="45" as="geometry" />
        </mxCell>
        <mxCell id="5c0rO-s0wgWKJhMPPycN-48" value="32" style="shape=partialRectangle;html=1;whiteSpace=wrap;connectable=0;overflow=hidden;fillColor=none;top=0;left=0;bottom=0;right=0;fontFamily=Comic Sans MS;fontSize=20;strokeColor=#457B9D;fontColor=#1D3557;" parent="5c0rO-s0wgWKJhMPPycN-46" vertex="1">
          <mxGeometry x="90" width="90" height="45" as="geometry" />
        </mxCell>
        <mxCell id="5c0rO-s0wgWKJhMPPycN-49" value="male" style="shape=partialRectangle;html=1;whiteSpace=wrap;connectable=0;overflow=hidden;fillColor=none;top=0;left=0;bottom=0;right=0;fontFamily=Comic Sans MS;fontSize=20;strokeColor=#457B9D;fontColor=#1D3557;" parent="5c0rO-s0wgWKJhMPPycN-46" vertex="1">
          <mxGeometry x="180" width="90" height="45" as="geometry" />
        </mxCell>
        <mxCell id="5c0rO-s0wgWKJhMPPycN-54" value="" style="shape=flexArrow;endArrow=classic;html=1;fontFamily=Comic Sans MS;fontSize=20;width=13;endSize=7;labelBackgroundColor=#F1FAEE;strokeColor=#457B9D;fontColor=#1D3557;" parent="1" edge="1">
          <mxGeometry width="50" height="50" relative="1" as="geometry">
            <mxPoint x="450" y="320" as="sourcePoint" />
            <mxPoint x="540" y="320" as="targetPoint" />
          </mxGeometry>
        </mxCell>
        <mxCell id="5c0rO-s0wgWKJhMPPycN-55" value="map" style="text;strokeColor=none;fillColor=none;html=1;fontSize=34;fontStyle=1;verticalAlign=middle;align=center;fontColor=#1D3557;fontFamily=Comic Sans MS;" parent="1" vertex="1">
          <mxGeometry x="440" y="450" width="100" height="40" as="geometry" />
        </mxCell>
        <mxCell id="5c0rO-s0wgWKJhMPPycN-58" value="" style="shape=flexArrow;endArrow=classic;html=1;fontFamily=Comic Sans MS;fontSize=20;width=13;endSize=7;labelBackgroundColor=#F1FAEE;strokeColor=#457B9D;fontColor=#1D3557;" parent="1" edge="1">
          <mxGeometry width="50" height="50" relative="1" as="geometry">
            <mxPoint x="450" y="619.5" as="sourcePoint" />
            <mxPoint x="540" y="619.5" as="targetPoint" />
          </mxGeometry>
        </mxCell>
        <mxCell id="5c0rO-s0wgWKJhMPPycN-59" value="&lt;h1&gt;input&lt;/h1&gt;&lt;p&gt;&lt;br&gt;&lt;/p&gt;" style="text;html=1;strokeColor=none;fillColor=none;spacing=5;spacingTop=-20;whiteSpace=wrap;overflow=hidden;rounded=0;fontFamily=Comic Sans MS;fontSize=20;align=center;fontColor=#1D3557;" parent="1" vertex="1">
          <mxGeometry x="130" y="70" width="280" height="120" as="geometry" />
        </mxCell>
        <mxCell id="5c0rO-s0wgWKJhMPPycN-77" value="" style="shape=table;html=1;whiteSpace=wrap;startSize=0;container=1;collapsible=0;childLayout=tableLayout;fontFamily=Comic Sans MS;fontSize=20;fillColor=#A8DADC;strokeColor=#457B9D;fontColor=#1D3557;" parent="1" vertex="1">
          <mxGeometry x="580" y="240" width="360" height="160" as="geometry" />
        </mxCell>
        <mxCell id="5c0rO-s0wgWKJhMPPycN-78" value="" style="shape=partialRectangle;html=1;whiteSpace=wrap;collapsible=0;dropTarget=0;pointerEvents=0;fillColor=none;top=0;left=0;bottom=0;right=0;points=[[0,0.5],[1,0.5]];portConstraint=eastwest;fontFamily=Comic Sans MS;fontSize=20;strokeColor=#457B9D;fontColor=#1D3557;" parent="5c0rO-s0wgWKJhMPPycN-77" vertex="1">
          <mxGeometry width="360" height="40" as="geometry" />
        </mxCell>
        <mxCell id="5c0rO-s0wgWKJhMPPycN-79" value="key" style="shape=partialRectangle;html=1;whiteSpace=wrap;connectable=0;overflow=hidden;fillColor=none;top=0;left=0;bottom=0;right=0;fontFamily=Comic Sans MS;fontSize=20;strokeColor=#457B9D;fontColor=#1D3557;" parent="5c0rO-s0wgWKJhMPPycN-78" vertex="1">
          <mxGeometry width="144" height="40" as="geometry" />
        </mxCell>
        <mxCell id="5c0rO-s0wgWKJhMPPycN-80" value="value" style="shape=partialRectangle;html=1;whiteSpace=wrap;connectable=0;overflow=hidden;fillColor=none;top=0;left=0;bottom=0;right=0;fontFamily=Comic Sans MS;fontSize=20;strokeColor=#457B9D;fontColor=#1D3557;" parent="5c0rO-s0wgWKJhMPPycN-78" vertex="1">
          <mxGeometry x="144" width="216" height="40" as="geometry" />
        </mxCell>
        <mxCell id="5c0rO-s0wgWKJhMPPycN-81" value="" style="shape=partialRectangle;html=1;whiteSpace=wrap;collapsible=0;dropTarget=0;pointerEvents=0;fillColor=none;top=0;left=0;bottom=0;right=0;points=[[0,0.5],[1,0.5]];portConstraint=eastwest;fontFamily=Comic Sans MS;fontSize=20;strokeColor=#457B9D;fontColor=#1D3557;" parent="5c0rO-s0wgWKJhMPPycN-77" vertex="1">
          <mxGeometry y="40" width="360" height="40" as="geometry" />
        </mxCell>
        <mxCell id="5c0rO-s0wgWKJhMPPycN-82" value="{userid:111}" style="shape=partialRectangle;html=1;whiteSpace=wrap;connectable=0;overflow=hidden;fillColor=none;top=0;left=0;bottom=0;right=0;fontFamily=Comic Sans MS;fontSize=20;strokeColor=#457B9D;fontColor=#1D3557;" parent="5c0rO-s0wgWKJhMPPycN-81" vertex="1">
          <mxGeometry width="144" height="40" as="geometry" />
        </mxCell>
        <mxCell id="5c0rO-s0wgWKJhMPPycN-83" value="{table:1,pageid:1}" style="shape=partialRectangle;html=1;whiteSpace=wrap;connectable=0;overflow=hidden;fillColor=none;top=0;left=0;bottom=0;right=0;fontFamily=Comic Sans MS;fontSize=20;strokeColor=#457B9D;fontColor=#1D3557;" parent="5c0rO-s0wgWKJhMPPycN-81" vertex="1">
          <mxGeometry x="144" width="216" height="40" as="geometry" />
        </mxCell>
        <mxCell id="5c0rO-s0wgWKJhMPPycN-84" value="" style="shape=partialRectangle;html=1;whiteSpace=wrap;collapsible=0;dropTarget=0;pointerEvents=0;fillColor=none;top=0;left=0;bottom=0;right=0;points=[[0,0.5],[1,0.5]];portConstraint=eastwest;fontFamily=Comic Sans MS;fontSize=20;strokeColor=#457B9D;fontColor=#1D3557;" parent="5c0rO-s0wgWKJhMPPycN-77" vertex="1">
          <mxGeometry y="80" width="360" height="40" as="geometry" />
        </mxCell>
        <mxCell id="5c0rO-s0wgWKJhMPPycN-85" value="{userid:111}" style="shape=partialRectangle;html=1;whiteSpace=wrap;connectable=0;overflow=hidden;fillColor=none;top=0;left=0;bottom=0;right=0;fontFamily=Comic Sans MS;fontSize=20;strokeColor=#457B9D;fontColor=#1D3557;" parent="5c0rO-s0wgWKJhMPPycN-84" vertex="1">
          <mxGeometry width="144" height="40" as="geometry" />
        </mxCell>
        <mxCell id="5c0rO-s0wgWKJhMPPycN-86" value="&lt;span&gt;{table:1,pageid:2}&lt;/span&gt;" style="shape=partialRectangle;html=1;whiteSpace=wrap;connectable=0;overflow=hidden;fillColor=none;top=0;left=0;bottom=0;right=0;fontFamily=Comic Sans MS;fontSize=20;strokeColor=#457B9D;fontColor=#1D3557;" parent="5c0rO-s0wgWKJhMPPycN-84" vertex="1">
          <mxGeometry x="144" width="216" height="40" as="geometry" />
        </mxCell>
        <mxCell id="5c0rO-s0wgWKJhMPPycN-87" value="" style="shape=partialRectangle;html=1;whiteSpace=wrap;collapsible=0;dropTarget=0;pointerEvents=0;fillColor=none;top=0;left=0;bottom=0;right=0;points=[[0,0.5],[1,0.5]];portConstraint=eastwest;fontFamily=Comic Sans MS;fontSize=20;strokeColor=#457B9D;fontColor=#1D3557;" parent="5c0rO-s0wgWKJhMPPycN-77" vertex="1">
          <mxGeometry y="120" width="360" height="40" as="geometry" />
        </mxCell>
        <mxCell id="5c0rO-s0wgWKJhMPPycN-88" value="{userid:222}" style="shape=partialRectangle;html=1;whiteSpace=wrap;connectable=0;overflow=hidden;fillColor=none;top=0;left=0;bottom=0;right=0;fontFamily=Comic Sans MS;fontSize=20;strokeColor=#457B9D;fontColor=#1D3557;" parent="5c0rO-s0wgWKJhMPPycN-87" vertex="1">
          <mxGeometry width="144" height="40" as="geometry" />
        </mxCell>
        <mxCell id="5c0rO-s0wgWKJhMPPycN-89" value="{table:1,pageid:1}" style="shape=partialRectangle;html=1;whiteSpace=wrap;connectable=0;overflow=hidden;fillColor=none;top=0;left=0;bottom=0;right=0;fontFamily=Comic Sans MS;fontSize=20;strokeColor=#457B9D;fontColor=#1D3557;" parent="5c0rO-s0wgWKJhMPPycN-87" vertex="1">
          <mxGeometry x="144" width="216" height="40" as="geometry" />
        </mxCell>
        <mxCell id="5c0rO-s0wgWKJhMPPycN-90" value="" style="shape=table;html=1;whiteSpace=wrap;startSize=0;container=1;collapsible=0;childLayout=tableLayout;fontFamily=Comic Sans MS;fontSize=20;fillColor=#A8DADC;strokeColor=#457B9D;fontColor=#1D3557;" parent="1" vertex="1">
          <mxGeometry x="580" y="550" width="360" height="120" as="geometry" />
        </mxCell>
        <mxCell id="5c0rO-s0wgWKJhMPPycN-91" value="" style="shape=partialRectangle;html=1;whiteSpace=wrap;collapsible=0;dropTarget=0;pointerEvents=0;fillColor=none;top=0;left=0;bottom=0;right=0;points=[[0,0.5],[1,0.5]];portConstraint=eastwest;fontFamily=Comic Sans MS;fontSize=20;strokeColor=#457B9D;fontColor=#1D3557;" parent="5c0rO-s0wgWKJhMPPycN-90" vertex="1">
          <mxGeometry width="360" height="40" as="geometry" />
        </mxCell>
        <mxCell id="5c0rO-s0wgWKJhMPPycN-92" value="key" style="shape=partialRectangle;html=1;whiteSpace=wrap;connectable=0;overflow=hidden;fillColor=none;top=0;left=0;bottom=0;right=0;fontFamily=Comic Sans MS;fontSize=20;strokeColor=#457B9D;fontColor=#1D3557;" parent="5c0rO-s0wgWKJhMPPycN-91" vertex="1">
          <mxGeometry width="140" height="40" as="geometry" />
        </mxCell>
        <mxCell id="5c0rO-s0wgWKJhMPPycN-93" value="value" style="shape=partialRectangle;html=1;whiteSpace=wrap;connectable=0;overflow=hidden;fillColor=none;top=0;left=0;bottom=0;right=0;fontFamily=Comic Sans MS;fontSize=20;strokeColor=#457B9D;fontColor=#1D3557;" parent="5c0rO-s0wgWKJhMPPycN-91" vertex="1">
          <mxGeometry x="140" width="220" height="40" as="geometry" />
        </mxCell>
        <mxCell id="5c0rO-s0wgWKJhMPPycN-94" value="" style="shape=partialRectangle;html=1;whiteSpace=wrap;collapsible=0;dropTarget=0;pointerEvents=0;fillColor=none;top=0;left=0;bottom=0;right=0;points=[[0,0.5],[1,0.5]];portConstraint=eastwest;fontFamily=Comic Sans MS;fontSize=20;strokeColor=#457B9D;fontColor=#1D3557;" parent="5c0rO-s0wgWKJhMPPycN-90" vertex="1">
          <mxGeometry y="40" width="360" height="40" as="geometry" />
        </mxCell>
        <mxCell id="5c0rO-s0wgWKJhMPPycN-95" value="{userid:111}" style="shape=partialRectangle;html=1;whiteSpace=wrap;connectable=0;overflow=hidden;fillColor=none;top=0;left=0;bottom=0;right=0;fontFamily=Comic Sans MS;fontSize=20;strokeColor=#457B9D;fontColor=#1D3557;" parent="5c0rO-s0wgWKJhMPPycN-94" vertex="1">
          <mxGeometry width="140" height="40" as="geometry" />
        </mxCell>
        <mxCell id="5c0rO-s0wgWKJhMPPycN-96" value="{table:2, age:25}" style="shape=partialRectangle;html=1;whiteSpace=wrap;connectable=0;overflow=hidden;fillColor=none;top=0;left=0;bottom=0;right=0;fontFamily=Comic Sans MS;fontSize=20;strokeColor=#457B9D;fontColor=#1D3557;" parent="5c0rO-s0wgWKJhMPPycN-94" vertex="1">
          <mxGeometry x="140" width="220" height="40" as="geometry" />
        </mxCell>
        <mxCell id="5c0rO-s0wgWKJhMPPycN-97" value="" style="shape=partialRectangle;html=1;whiteSpace=wrap;collapsible=0;dropTarget=0;pointerEvents=0;fillColor=none;top=0;left=0;bottom=0;right=0;points=[[0,0.5],[1,0.5]];portConstraint=eastwest;fontFamily=Comic Sans MS;fontSize=20;strokeColor=#457B9D;fontColor=#1D3557;" parent="5c0rO-s0wgWKJhMPPycN-90" vertex="1">
          <mxGeometry y="80" width="360" height="40" as="geometry" />
        </mxCell>
        <mxCell id="5c0rO-s0wgWKJhMPPycN-98" value="{userid:222}" style="shape=partialRectangle;html=1;whiteSpace=wrap;connectable=0;overflow=hidden;fillColor=none;top=0;left=0;bottom=0;right=0;fontFamily=Comic Sans MS;fontSize=20;strokeColor=#457B9D;fontColor=#1D3557;" parent="5c0rO-s0wgWKJhMPPycN-97" vertex="1">
          <mxGeometry width="140" height="40" as="geometry" />
        </mxCell>
        <mxCell id="5c0rO-s0wgWKJhMPPycN-99" value="{table:2, age:32}" style="shape=partialRectangle;html=1;whiteSpace=wrap;connectable=0;overflow=hidden;fillColor=none;top=0;left=0;bottom=0;right=0;fontFamily=Comic Sans MS;fontSize=20;strokeColor=#457B9D;fontColor=#1D3557;" parent="5c0rO-s0wgWKJhMPPycN-97" vertex="1">
          <mxGeometry x="140" width="220" height="40" as="geometry" />
        </mxCell>
        <mxCell id="5c0rO-s0wgWKJhMPPycN-103" value="&lt;h1&gt;output&lt;/h1&gt;&lt;p&gt;&lt;br&gt;&lt;/p&gt;" style="text;html=1;strokeColor=none;fillColor=none;spacing=5;spacingTop=-20;whiteSpace=wrap;overflow=hidden;rounded=0;fontFamily=Comic Sans MS;fontSize=20;align=center;fontColor=#1D3557;" parent="1" vertex="1">
          <mxGeometry x="580" y="70" width="280" height="120" as="geometry" />
        </mxCell>
      </root>
    </mxGraphModel>
  </diagram>
  <diagram id="OauqRYNq-r804J_FyaCw" name="Page-2">
    <mxGraphModel dx="638" dy="580" grid="0" gridSize="10" guides="1" tooltips="1" connect="1" arrows="1" fold="1" page="0" pageScale="1" pageWidth="827" pageHeight="1169" math="0" shadow="0">
      <root>
        <mxCell id="5jwcKTj3YTHvtwHiOeDI-0" />
        <mxCell id="5jwcKTj3YTHvtwHiOeDI-1" parent="5jwcKTj3YTHvtwHiOeDI-0" />
        <mxCell id="5jwcKTj3YTHvtwHiOeDI-37" value="&lt;h1&gt;input&lt;/h1&gt;&lt;p&gt;&lt;br&gt;&lt;/p&gt;" style="text;html=1;strokeColor=none;fillColor=none;spacing=5;spacingTop=-20;whiteSpace=wrap;overflow=hidden;rounded=0;fontFamily=Comic Sans MS;fontSize=20;align=center;fontColor=#1D3557;" parent="5jwcKTj3YTHvtwHiOeDI-1" vertex="1">
          <mxGeometry x="610" y="90" width="280" height="120" as="geometry" />
        </mxCell>
        <mxCell id="5jwcKTj3YTHvtwHiOeDI-38" value="" style="shape=table;html=1;whiteSpace=wrap;startSize=0;container=1;collapsible=0;childLayout=tableLayout;fontFamily=Comic Sans MS;fontSize=20;fillColor=#A8DADC;strokeColor=#457B9D;fontColor=#1D3557;" parent="5jwcKTj3YTHvtwHiOeDI-1" vertex="1">
          <mxGeometry x="1111" y="230" width="360" height="170" as="geometry" />
        </mxCell>
        <mxCell id="5jwcKTj3YTHvtwHiOeDI-39" value="" style="shape=partialRectangle;html=1;whiteSpace=wrap;collapsible=0;dropTarget=0;pointerEvents=0;fillColor=none;top=0;left=0;bottom=0;right=0;points=[[0,0.5],[1,0.5]];portConstraint=eastwest;fontFamily=Comic Sans MS;fontSize=20;strokeColor=#457B9D;fontColor=#1D3557;" parent="5jwcKTj3YTHvtwHiOeDI-38" vertex="1">
          <mxGeometry width="360" height="40" as="geometry" />
        </mxCell>
        <mxCell id="5jwcKTj3YTHvtwHiOeDI-40" value="key" style="shape=partialRectangle;html=1;whiteSpace=wrap;connectable=0;overflow=hidden;fillColor=none;top=0;left=0;bottom=0;right=0;fontFamily=Comic Sans MS;fontSize=20;strokeColor=#457B9D;fontColor=#1D3557;" parent="5jwcKTj3YTHvtwHiOeDI-39" vertex="1">
          <mxGeometry width="150" height="40" as="geometry" />
        </mxCell>
        <mxCell id="5jwcKTj3YTHvtwHiOeDI-41" value="value" style="shape=partialRectangle;html=1;whiteSpace=wrap;connectable=0;overflow=hidden;fillColor=none;top=0;left=0;bottom=0;right=0;fontFamily=Comic Sans MS;fontSize=20;strokeColor=#457B9D;fontColor=#1D3557;" parent="5jwcKTj3YTHvtwHiOeDI-39" vertex="1">
          <mxGeometry x="150" width="210" height="40" as="geometry" />
        </mxCell>
        <mxCell id="5jwcKTj3YTHvtwHiOeDI-42" value="" style="shape=partialRectangle;html=1;whiteSpace=wrap;collapsible=0;dropTarget=0;pointerEvents=0;fillColor=none;top=0;left=0;bottom=0;right=0;points=[[0,0.5],[1,0.5]];portConstraint=eastwest;fontFamily=Comic Sans MS;fontSize=20;strokeColor=#457B9D;fontColor=#1D3557;" parent="5jwcKTj3YTHvtwHiOeDI-38" vertex="1">
          <mxGeometry y="40" width="360" height="40" as="geometry" />
        </mxCell>
        <mxCell id="5jwcKTj3YTHvtwHiOeDI-43" value="{userid:111}" style="shape=partialRectangle;html=1;whiteSpace=wrap;connectable=0;overflow=hidden;fillColor=none;top=0;left=0;bottom=0;right=0;fontFamily=Comic Sans MS;fontSize=20;strokeColor=#457B9D;fontColor=#1D3557;" parent="5jwcKTj3YTHvtwHiOeDI-42" vertex="1">
          <mxGeometry width="150" height="40" as="geometry" />
        </mxCell>
        <mxCell id="5jwcKTj3YTHvtwHiOeDI-44" value="{table:1,pageid:1}" style="shape=partialRectangle;html=1;whiteSpace=wrap;connectable=0;overflow=hidden;fillColor=none;top=0;left=0;bottom=0;right=0;fontFamily=Comic Sans MS;fontSize=20;strokeColor=#457B9D;fontColor=#1D3557;" parent="5jwcKTj3YTHvtwHiOeDI-42" vertex="1">
          <mxGeometry x="150" width="210" height="40" as="geometry" />
        </mxCell>
        <mxCell id="5jwcKTj3YTHvtwHiOeDI-48" value="" style="shape=partialRectangle;html=1;whiteSpace=wrap;collapsible=0;dropTarget=0;pointerEvents=0;fillColor=none;top=0;left=0;bottom=0;right=0;points=[[0,0.5],[1,0.5]];portConstraint=eastwest;fontFamily=Comic Sans MS;fontSize=20;strokeColor=#457B9D;fontColor=#1D3557;" parent="5jwcKTj3YTHvtwHiOeDI-38" vertex="1">
          <mxGeometry y="80" width="360" height="50" as="geometry" />
        </mxCell>
        <mxCell id="5jwcKTj3YTHvtwHiOeDI-49" value="&lt;span&gt;{userid:111}&lt;/span&gt;" style="shape=partialRectangle;html=1;whiteSpace=wrap;connectable=0;overflow=hidden;fillColor=none;top=0;left=0;bottom=0;right=0;fontFamily=Comic Sans MS;fontSize=20;strokeColor=#457B9D;fontColor=#1D3557;" parent="5jwcKTj3YTHvtwHiOeDI-48" vertex="1">
          <mxGeometry width="150" height="50" as="geometry" />
        </mxCell>
        <mxCell id="5jwcKTj3YTHvtwHiOeDI-50" value="&lt;span&gt;{table:1,pageid:2}&lt;/span&gt;" style="shape=partialRectangle;html=1;whiteSpace=wrap;connectable=0;overflow=hidden;fillColor=none;top=0;left=0;bottom=0;right=0;fontFamily=Comic Sans MS;fontSize=20;strokeColor=#457B9D;fontColor=#1D3557;" parent="5jwcKTj3YTHvtwHiOeDI-48" vertex="1">
          <mxGeometry x="150" width="210" height="50" as="geometry" />
        </mxCell>
        <mxCell id="5jwcKTj3YTHvtwHiOeDI-100" style="shape=partialRectangle;html=1;whiteSpace=wrap;collapsible=0;dropTarget=0;pointerEvents=0;fillColor=none;top=0;left=0;bottom=0;right=0;points=[[0,0.5],[1,0.5]];portConstraint=eastwest;fontFamily=Comic Sans MS;fontSize=20;strokeColor=#457B9D;fontColor=#1D3557;" parent="5jwcKTj3YTHvtwHiOeDI-38" vertex="1">
          <mxGeometry y="130" width="360" height="40" as="geometry" />
        </mxCell>
        <mxCell id="5jwcKTj3YTHvtwHiOeDI-101" value="&lt;span&gt;{userid:111}&lt;/span&gt;" style="shape=partialRectangle;html=1;whiteSpace=wrap;connectable=0;overflow=hidden;fillColor=none;top=0;left=0;bottom=0;right=0;fontFamily=Comic Sans MS;fontSize=20;strokeColor=#457B9D;fontColor=#1D3557;" parent="5jwcKTj3YTHvtwHiOeDI-100" vertex="1">
          <mxGeometry width="150" height="40" as="geometry" />
        </mxCell>
        <mxCell id="5jwcKTj3YTHvtwHiOeDI-102" value="&lt;span&gt;{table:2, age:25}&lt;/span&gt;" style="shape=partialRectangle;html=1;whiteSpace=wrap;connectable=0;overflow=hidden;fillColor=none;top=0;left=0;bottom=0;right=0;fontFamily=Comic Sans MS;fontSize=20;strokeColor=#457B9D;fontColor=#1D3557;" parent="5jwcKTj3YTHvtwHiOeDI-100" vertex="1">
          <mxGeometry x="150" width="210" height="40" as="geometry" />
        </mxCell>
        <mxCell id="5jwcKTj3YTHvtwHiOeDI-51" value="" style="shape=table;html=1;whiteSpace=wrap;startSize=0;container=1;collapsible=0;childLayout=tableLayout;fontFamily=Comic Sans MS;fontSize=20;fillColor=#A8DADC;strokeColor=#457B9D;fontColor=#1D3557;" parent="5jwcKTj3YTHvtwHiOeDI-1" vertex="1">
          <mxGeometry x="580" y="550" width="360" height="120" as="geometry" />
        </mxCell>
        <mxCell id="5jwcKTj3YTHvtwHiOeDI-52" value="" style="shape=partialRectangle;html=1;whiteSpace=wrap;collapsible=0;dropTarget=0;pointerEvents=0;fillColor=none;top=0;left=0;bottom=0;right=0;points=[[0,0.5],[1,0.5]];portConstraint=eastwest;fontFamily=Comic Sans MS;fontSize=20;strokeColor=#457B9D;fontColor=#1D3557;" parent="5jwcKTj3YTHvtwHiOeDI-51" vertex="1">
          <mxGeometry width="360" height="40" as="geometry" />
        </mxCell>
        <mxCell id="5jwcKTj3YTHvtwHiOeDI-53" value="key" style="shape=partialRectangle;html=1;whiteSpace=wrap;connectable=0;overflow=hidden;fillColor=none;top=0;left=0;bottom=0;right=0;fontFamily=Comic Sans MS;fontSize=20;strokeColor=#457B9D;fontColor=#1D3557;" parent="5jwcKTj3YTHvtwHiOeDI-52" vertex="1">
          <mxGeometry width="140" height="40" as="geometry" />
        </mxCell>
        <mxCell id="5jwcKTj3YTHvtwHiOeDI-54" value="value" style="shape=partialRectangle;html=1;whiteSpace=wrap;connectable=0;overflow=hidden;fillColor=none;top=0;left=0;bottom=0;right=0;fontFamily=Comic Sans MS;fontSize=20;strokeColor=#457B9D;fontColor=#1D3557;" parent="5jwcKTj3YTHvtwHiOeDI-52" vertex="1">
          <mxGeometry x="140" width="220" height="40" as="geometry" />
        </mxCell>
        <mxCell id="5jwcKTj3YTHvtwHiOeDI-55" value="" style="shape=partialRectangle;html=1;whiteSpace=wrap;collapsible=0;dropTarget=0;pointerEvents=0;fillColor=none;top=0;left=0;bottom=0;right=0;points=[[0,0.5],[1,0.5]];portConstraint=eastwest;fontFamily=Comic Sans MS;fontSize=20;strokeColor=#457B9D;fontColor=#1D3557;" parent="5jwcKTj3YTHvtwHiOeDI-51" vertex="1">
          <mxGeometry y="40" width="360" height="40" as="geometry" />
        </mxCell>
        <mxCell id="5jwcKTj3YTHvtwHiOeDI-56" value="{userid:111}" style="shape=partialRectangle;html=1;whiteSpace=wrap;connectable=0;overflow=hidden;fillColor=none;top=0;left=0;bottom=0;right=0;fontFamily=Comic Sans MS;fontSize=20;strokeColor=#457B9D;fontColor=#1D3557;" parent="5jwcKTj3YTHvtwHiOeDI-55" vertex="1">
          <mxGeometry width="140" height="40" as="geometry" />
        </mxCell>
        <mxCell id="5jwcKTj3YTHvtwHiOeDI-57" value="{table:2, age:25}" style="shape=partialRectangle;html=1;whiteSpace=wrap;connectable=0;overflow=hidden;fillColor=none;top=0;left=0;bottom=0;right=0;fontFamily=Comic Sans MS;fontSize=20;strokeColor=#457B9D;fontColor=#1D3557;" parent="5jwcKTj3YTHvtwHiOeDI-55" vertex="1">
          <mxGeometry x="140" width="220" height="40" as="geometry" />
        </mxCell>
        <mxCell id="5jwcKTj3YTHvtwHiOeDI-58" value="" style="shape=partialRectangle;html=1;whiteSpace=wrap;collapsible=0;dropTarget=0;pointerEvents=0;fillColor=none;top=0;left=0;bottom=0;right=0;points=[[0,0.5],[1,0.5]];portConstraint=eastwest;fontFamily=Comic Sans MS;fontSize=20;strokeColor=#457B9D;fontColor=#1D3557;" parent="5jwcKTj3YTHvtwHiOeDI-51" vertex="1">
          <mxGeometry y="80" width="360" height="40" as="geometry" />
        </mxCell>
        <mxCell id="5jwcKTj3YTHvtwHiOeDI-59" value="{userid:222}" style="shape=partialRectangle;html=1;whiteSpace=wrap;connectable=0;overflow=hidden;fillColor=none;top=0;left=0;bottom=0;right=0;fontFamily=Comic Sans MS;fontSize=20;strokeColor=#457B9D;fontColor=#1D3557;" parent="5jwcKTj3YTHvtwHiOeDI-58" vertex="1">
          <mxGeometry width="140" height="40" as="geometry" />
        </mxCell>
        <mxCell id="5jwcKTj3YTHvtwHiOeDI-60" value="{table:2, age:32}" style="shape=partialRectangle;html=1;whiteSpace=wrap;connectable=0;overflow=hidden;fillColor=none;top=0;left=0;bottom=0;right=0;fontFamily=Comic Sans MS;fontSize=20;strokeColor=#457B9D;fontColor=#1D3557;" parent="5jwcKTj3YTHvtwHiOeDI-58" vertex="1">
          <mxGeometry x="140" width="220" height="40" as="geometry" />
        </mxCell>
        <mxCell id="5jwcKTj3YTHvtwHiOeDI-62" value="" style="shape=flexArrow;endArrow=classic;html=1;fontFamily=Comic Sans MS;fontSize=20;width=13;endSize=7;labelBackgroundColor=#F1FAEE;strokeColor=#457B9D;fontColor=#1D3557;" parent="5jwcKTj3YTHvtwHiOeDI-1" edge="1">
          <mxGeometry width="50" height="50" relative="1" as="geometry">
            <mxPoint x="981" y="309.5" as="sourcePoint" />
            <mxPoint x="1071" y="309.5" as="targetPoint" />
          </mxGeometry>
        </mxCell>
        <mxCell id="5jwcKTj3YTHvtwHiOeDI-63" value="shuffle sort" style="text;strokeColor=none;fillColor=none;html=1;fontSize=34;fontStyle=1;verticalAlign=middle;align=center;fontColor=#1D3557;fontFamily=Comic Sans MS;" parent="5jwcKTj3YTHvtwHiOeDI-1" vertex="1">
          <mxGeometry x="981" y="420" width="100" height="40" as="geometry" />
        </mxCell>
        <mxCell id="5jwcKTj3YTHvtwHiOeDI-64" value="" style="shape=flexArrow;endArrow=classic;html=1;fontFamily=Comic Sans MS;fontSize=20;width=13;endSize=7;labelBackgroundColor=#F1FAEE;strokeColor=#457B9D;fontColor=#1D3557;" parent="5jwcKTj3YTHvtwHiOeDI-1" edge="1">
          <mxGeometry width="50" height="50" relative="1" as="geometry">
            <mxPoint x="986" y="599.5" as="sourcePoint" />
            <mxPoint x="1076" y="599.5" as="targetPoint" />
          </mxGeometry>
        </mxCell>
        <mxCell id="5jwcKTj3YTHvtwHiOeDI-78" value="" style="shape=table;html=1;whiteSpace=wrap;startSize=0;container=1;collapsible=0;childLayout=tableLayout;fontFamily=Comic Sans MS;fontSize=20;fillColor=#A8DADC;strokeColor=#457B9D;fontColor=#1D3557;" parent="5jwcKTj3YTHvtwHiOeDI-1" vertex="1">
          <mxGeometry x="1111" y="540" width="360" height="120" as="geometry" />
        </mxCell>
        <mxCell id="5jwcKTj3YTHvtwHiOeDI-79" value="" style="shape=partialRectangle;html=1;whiteSpace=wrap;collapsible=0;dropTarget=0;pointerEvents=0;fillColor=none;top=0;left=0;bottom=0;right=0;points=[[0,0.5],[1,0.5]];portConstraint=eastwest;fontFamily=Comic Sans MS;fontSize=20;strokeColor=#457B9D;fontColor=#1D3557;" parent="5jwcKTj3YTHvtwHiOeDI-78" vertex="1">
          <mxGeometry width="360" height="40" as="geometry" />
        </mxCell>
        <mxCell id="5jwcKTj3YTHvtwHiOeDI-80" value="key" style="shape=partialRectangle;html=1;whiteSpace=wrap;connectable=0;overflow=hidden;fillColor=none;top=0;left=0;bottom=0;right=0;fontFamily=Comic Sans MS;fontSize=20;strokeColor=#457B9D;fontColor=#1D3557;" parent="5jwcKTj3YTHvtwHiOeDI-79" vertex="1">
          <mxGeometry width="140" height="40" as="geometry" />
        </mxCell>
        <mxCell id="5jwcKTj3YTHvtwHiOeDI-81" value="value" style="shape=partialRectangle;html=1;whiteSpace=wrap;connectable=0;overflow=hidden;fillColor=none;top=0;left=0;bottom=0;right=0;fontFamily=Comic Sans MS;fontSize=20;strokeColor=#457B9D;fontColor=#1D3557;" parent="5jwcKTj3YTHvtwHiOeDI-79" vertex="1">
          <mxGeometry x="140" width="220" height="40" as="geometry" />
        </mxCell>
        <mxCell id="5jwcKTj3YTHvtwHiOeDI-82" value="" style="shape=partialRectangle;html=1;whiteSpace=wrap;collapsible=0;dropTarget=0;pointerEvents=0;fillColor=none;top=0;left=0;bottom=0;right=0;points=[[0,0.5],[1,0.5]];portConstraint=eastwest;fontFamily=Comic Sans MS;fontSize=20;strokeColor=#457B9D;fontColor=#1D3557;" parent="5jwcKTj3YTHvtwHiOeDI-78" vertex="1">
          <mxGeometry y="40" width="360" height="40" as="geometry" />
        </mxCell>
        <mxCell id="5jwcKTj3YTHvtwHiOeDI-83" value="{userid:222}" style="shape=partialRectangle;html=1;whiteSpace=wrap;connectable=0;overflow=hidden;fillColor=none;top=0;left=0;bottom=0;right=0;fontFamily=Comic Sans MS;fontSize=20;strokeColor=#457B9D;fontColor=#1D3557;" parent="5jwcKTj3YTHvtwHiOeDI-82" vertex="1">
          <mxGeometry width="140" height="40" as="geometry" />
        </mxCell>
        <mxCell id="5jwcKTj3YTHvtwHiOeDI-84" value="&lt;span&gt;{table:1,pageid:1}&lt;/span&gt;" style="shape=partialRectangle;html=1;whiteSpace=wrap;connectable=0;overflow=hidden;fillColor=none;top=0;left=0;bottom=0;right=0;fontFamily=Comic Sans MS;fontSize=20;strokeColor=#457B9D;fontColor=#1D3557;" parent="5jwcKTj3YTHvtwHiOeDI-82" vertex="1">
          <mxGeometry x="140" width="220" height="40" as="geometry" />
        </mxCell>
        <mxCell id="5jwcKTj3YTHvtwHiOeDI-85" value="" style="shape=partialRectangle;html=1;whiteSpace=wrap;collapsible=0;dropTarget=0;pointerEvents=0;fillColor=none;top=0;left=0;bottom=0;right=0;points=[[0,0.5],[1,0.5]];portConstraint=eastwest;fontFamily=Comic Sans MS;fontSize=20;strokeColor=#457B9D;fontColor=#1D3557;" parent="5jwcKTj3YTHvtwHiOeDI-78" vertex="1">
          <mxGeometry y="80" width="360" height="40" as="geometry" />
        </mxCell>
        <mxCell id="5jwcKTj3YTHvtwHiOeDI-86" value="{userid:222}" style="shape=partialRectangle;html=1;whiteSpace=wrap;connectable=0;overflow=hidden;fillColor=none;top=0;left=0;bottom=0;right=0;fontFamily=Comic Sans MS;fontSize=20;strokeColor=#457B9D;fontColor=#1D3557;" parent="5jwcKTj3YTHvtwHiOeDI-85" vertex="1">
          <mxGeometry width="140" height="40" as="geometry" />
        </mxCell>
        <mxCell id="5jwcKTj3YTHvtwHiOeDI-87" value="{table:2, age:32}" style="shape=partialRectangle;html=1;whiteSpace=wrap;connectable=0;overflow=hidden;fillColor=none;top=0;left=0;bottom=0;right=0;fontFamily=Comic Sans MS;fontSize=20;strokeColor=#457B9D;fontColor=#1D3557;" parent="5jwcKTj3YTHvtwHiOeDI-85" vertex="1">
          <mxGeometry x="140" width="220" height="40" as="geometry" />
        </mxCell>
        <mxCell id="15Qo8vPaDKFcL1bemFOe-0" value="" style="shape=table;html=1;whiteSpace=wrap;startSize=0;container=1;collapsible=0;childLayout=tableLayout;fontFamily=Comic Sans MS;fontSize=20;fillColor=#A8DADC;strokeColor=#457B9D;fontColor=#1D3557;" parent="5jwcKTj3YTHvtwHiOeDI-1" vertex="1">
          <mxGeometry x="580" y="240" width="360" height="160" as="geometry" />
        </mxCell>
        <mxCell id="15Qo8vPaDKFcL1bemFOe-1" value="" style="shape=partialRectangle;html=1;whiteSpace=wrap;collapsible=0;dropTarget=0;pointerEvents=0;fillColor=none;top=0;left=0;bottom=0;right=0;points=[[0,0.5],[1,0.5]];portConstraint=eastwest;fontFamily=Comic Sans MS;fontSize=20;strokeColor=#457B9D;fontColor=#1D3557;" parent="15Qo8vPaDKFcL1bemFOe-0" vertex="1">
          <mxGeometry width="360" height="40" as="geometry" />
        </mxCell>
        <mxCell id="15Qo8vPaDKFcL1bemFOe-2" value="key" style="shape=partialRectangle;html=1;whiteSpace=wrap;connectable=0;overflow=hidden;fillColor=none;top=0;left=0;bottom=0;right=0;fontFamily=Comic Sans MS;fontSize=20;strokeColor=#457B9D;fontColor=#1D3557;" parent="15Qo8vPaDKFcL1bemFOe-1" vertex="1">
          <mxGeometry width="150" height="40" as="geometry" />
        </mxCell>
        <mxCell id="15Qo8vPaDKFcL1bemFOe-3" value="value" style="shape=partialRectangle;html=1;whiteSpace=wrap;connectable=0;overflow=hidden;fillColor=none;top=0;left=0;bottom=0;right=0;fontFamily=Comic Sans MS;fontSize=20;strokeColor=#457B9D;fontColor=#1D3557;" parent="15Qo8vPaDKFcL1bemFOe-1" vertex="1">
          <mxGeometry x="150" width="210" height="40" as="geometry" />
        </mxCell>
        <mxCell id="15Qo8vPaDKFcL1bemFOe-4" value="" style="shape=partialRectangle;html=1;whiteSpace=wrap;collapsible=0;dropTarget=0;pointerEvents=0;fillColor=none;top=0;left=0;bottom=0;right=0;points=[[0,0.5],[1,0.5]];portConstraint=eastwest;fontFamily=Comic Sans MS;fontSize=20;strokeColor=#457B9D;fontColor=#1D3557;" parent="15Qo8vPaDKFcL1bemFOe-0" vertex="1">
          <mxGeometry y="40" width="360" height="40" as="geometry" />
        </mxCell>
        <mxCell id="15Qo8vPaDKFcL1bemFOe-5" value="{userid:111}" style="shape=partialRectangle;html=1;whiteSpace=wrap;connectable=0;overflow=hidden;fillColor=none;top=0;left=0;bottom=0;right=0;fontFamily=Comic Sans MS;fontSize=20;strokeColor=#457B9D;fontColor=#1D3557;" parent="15Qo8vPaDKFcL1bemFOe-4" vertex="1">
          <mxGeometry width="150" height="40" as="geometry" />
        </mxCell>
        <mxCell id="15Qo8vPaDKFcL1bemFOe-6" value="{table:1,pageid:1}" style="shape=partialRectangle;html=1;whiteSpace=wrap;connectable=0;overflow=hidden;fillColor=none;top=0;left=0;bottom=0;right=0;fontFamily=Comic Sans MS;fontSize=20;strokeColor=#457B9D;fontColor=#1D3557;" parent="15Qo8vPaDKFcL1bemFOe-4" vertex="1">
          <mxGeometry x="150" width="210" height="40" as="geometry" />
        </mxCell>
        <mxCell id="15Qo8vPaDKFcL1bemFOe-7" value="" style="shape=partialRectangle;html=1;whiteSpace=wrap;collapsible=0;dropTarget=0;pointerEvents=0;fillColor=none;top=0;left=0;bottom=0;right=0;points=[[0,0.5],[1,0.5]];portConstraint=eastwest;fontFamily=Comic Sans MS;fontSize=20;strokeColor=#457B9D;fontColor=#1D3557;" parent="15Qo8vPaDKFcL1bemFOe-0" vertex="1">
          <mxGeometry y="80" width="360" height="40" as="geometry" />
        </mxCell>
        <mxCell id="15Qo8vPaDKFcL1bemFOe-8" value="{userid:111}" style="shape=partialRectangle;html=1;whiteSpace=wrap;connectable=0;overflow=hidden;fillColor=none;top=0;left=0;bottom=0;right=0;fontFamily=Comic Sans MS;fontSize=20;strokeColor=#457B9D;fontColor=#1D3557;" parent="15Qo8vPaDKFcL1bemFOe-7" vertex="1">
          <mxGeometry width="150" height="40" as="geometry" />
        </mxCell>
        <mxCell id="15Qo8vPaDKFcL1bemFOe-9" value="&lt;span&gt;{table:1,pageid:2}&lt;/span&gt;" style="shape=partialRectangle;html=1;whiteSpace=wrap;connectable=0;overflow=hidden;fillColor=none;top=0;left=0;bottom=0;right=0;fontFamily=Comic Sans MS;fontSize=20;strokeColor=#457B9D;fontColor=#1D3557;" parent="15Qo8vPaDKFcL1bemFOe-7" vertex="1">
          <mxGeometry x="150" width="210" height="40" as="geometry" />
        </mxCell>
        <mxCell id="15Qo8vPaDKFcL1bemFOe-10" value="" style="shape=partialRectangle;html=1;whiteSpace=wrap;collapsible=0;dropTarget=0;pointerEvents=0;fillColor=none;top=0;left=0;bottom=0;right=0;points=[[0,0.5],[1,0.5]];portConstraint=eastwest;fontFamily=Comic Sans MS;fontSize=20;strokeColor=#457B9D;fontColor=#1D3557;" parent="15Qo8vPaDKFcL1bemFOe-0" vertex="1">
          <mxGeometry y="120" width="360" height="40" as="geometry" />
        </mxCell>
        <mxCell id="15Qo8vPaDKFcL1bemFOe-11" value="{userid:222}" style="shape=partialRectangle;html=1;whiteSpace=wrap;connectable=0;overflow=hidden;fillColor=none;top=0;left=0;bottom=0;right=0;fontFamily=Comic Sans MS;fontSize=20;strokeColor=#457B9D;fontColor=#1D3557;" parent="15Qo8vPaDKFcL1bemFOe-10" vertex="1">
          <mxGeometry width="150" height="40" as="geometry" />
        </mxCell>
        <mxCell id="15Qo8vPaDKFcL1bemFOe-12" value="{table:1,pageid:1}" style="shape=partialRectangle;html=1;whiteSpace=wrap;connectable=0;overflow=hidden;fillColor=none;top=0;left=0;bottom=0;right=0;fontFamily=Comic Sans MS;fontSize=20;strokeColor=#457B9D;fontColor=#1D3557;" parent="15Qo8vPaDKFcL1bemFOe-10" vertex="1">
          <mxGeometry x="150" width="210" height="40" as="geometry" />
        </mxCell>
        <mxCell id="15Qo8vPaDKFcL1bemFOe-13" value="&lt;h1&gt;output&lt;/h1&gt;&lt;p&gt;&lt;br&gt;&lt;/p&gt;" style="text;html=1;strokeColor=none;fillColor=none;spacing=5;spacingTop=-20;whiteSpace=wrap;overflow=hidden;rounded=0;fontFamily=Comic Sans MS;fontSize=20;align=center;fontColor=#1D3557;" parent="5jwcKTj3YTHvtwHiOeDI-1" vertex="1">
          <mxGeometry x="1111" y="90" width="280" height="120" as="geometry" />
        </mxCell>
      </root>
    </mxGraphModel>
  </diagram>
  <diagram id="_-JcJkyPJ9pYBtww4400" name="Page-3">
    <mxGraphModel dx="1038" dy="580" grid="0" gridSize="10" guides="1" tooltips="1" connect="1" arrows="1" fold="1" page="0" pageScale="1" pageWidth="827" pageHeight="1169" math="0" shadow="0">
      <root>
        <mxCell id="3IWHOSCsguQhji0tG3W4-0" />
        <mxCell id="3IWHOSCsguQhji0tG3W4-1" parent="3IWHOSCsguQhji0tG3W4-0" />
        <mxCell id="W68XGSMgtEbUcB7ZqFCw-0" value="&lt;h1&gt;input&lt;/h1&gt;&lt;p&gt;&lt;br&gt;&lt;/p&gt;" style="text;html=1;strokeColor=none;fillColor=none;spacing=5;spacingTop=-20;whiteSpace=wrap;overflow=hidden;rounded=0;fontFamily=Comic Sans MS;fontSize=20;align=center;fontColor=#1D3557;" parent="3IWHOSCsguQhji0tG3W4-1" vertex="1">
          <mxGeometry x="182" y="93" width="280" height="120" as="geometry" />
        </mxCell>
        <mxCell id="W68XGSMgtEbUcB7ZqFCw-1" value="" style="shape=table;html=1;whiteSpace=wrap;startSize=0;container=1;collapsible=0;childLayout=tableLayout;fontFamily=Comic Sans MS;fontSize=20;fillColor=#A8DADC;strokeColor=#457B9D;fontColor=#1D3557;" parent="3IWHOSCsguQhji0tG3W4-1" vertex="1">
          <mxGeometry x="664" y="238" width="360" height="130" as="geometry" />
        </mxCell>
        <mxCell id="W68XGSMgtEbUcB7ZqFCw-2" value="" style="shape=partialRectangle;html=1;whiteSpace=wrap;collapsible=0;dropTarget=0;pointerEvents=0;fillColor=none;top=0;left=0;bottom=0;right=0;points=[[0,0.5],[1,0.5]];portConstraint=eastwest;fontFamily=Comic Sans MS;fontSize=20;strokeColor=#457B9D;fontColor=#1D3557;" parent="W68XGSMgtEbUcB7ZqFCw-1" vertex="1">
          <mxGeometry width="360" height="40" as="geometry" />
        </mxCell>
        <mxCell id="W68XGSMgtEbUcB7ZqFCw-3" value="key" style="shape=partialRectangle;html=1;whiteSpace=wrap;connectable=0;overflow=hidden;fillColor=none;top=0;left=0;bottom=0;right=0;fontFamily=Comic Sans MS;fontSize=20;strokeColor=#457B9D;fontColor=#1D3557;" parent="W68XGSMgtEbUcB7ZqFCw-2" vertex="1">
          <mxGeometry width="150" height="40" as="geometry" />
        </mxCell>
        <mxCell id="W68XGSMgtEbUcB7ZqFCw-4" value="value" style="shape=partialRectangle;html=1;whiteSpace=wrap;connectable=0;overflow=hidden;fillColor=none;top=0;left=0;bottom=0;right=0;fontFamily=Comic Sans MS;fontSize=20;strokeColor=#457B9D;fontColor=#1D3557;" parent="W68XGSMgtEbUcB7ZqFCw-2" vertex="1">
          <mxGeometry x="150" width="210" height="40" as="geometry" />
        </mxCell>
        <mxCell id="W68XGSMgtEbUcB7ZqFCw-5" value="" style="shape=partialRectangle;html=1;whiteSpace=wrap;collapsible=0;dropTarget=0;pointerEvents=0;fillColor=none;top=0;left=0;bottom=0;right=0;points=[[0,0.5],[1,0.5]];portConstraint=eastwest;fontFamily=Comic Sans MS;fontSize=20;strokeColor=#457B9D;fontColor=#1D3557;" parent="W68XGSMgtEbUcB7ZqFCw-1" vertex="1">
          <mxGeometry y="40" width="360" height="40" as="geometry" />
        </mxCell>
        <mxCell id="W68XGSMgtEbUcB7ZqFCw-6" value="{userid:111}" style="shape=partialRectangle;html=1;whiteSpace=wrap;connectable=0;overflow=hidden;fillColor=none;top=0;left=0;bottom=0;right=0;fontFamily=Comic Sans MS;fontSize=20;strokeColor=#457B9D;fontColor=#1D3557;" parent="W68XGSMgtEbUcB7ZqFCw-5" vertex="1">
          <mxGeometry width="150" height="40" as="geometry" />
        </mxCell>
        <mxCell id="W68XGSMgtEbUcB7ZqFCw-7" value="{pageid:1,age:25}" style="shape=partialRectangle;html=1;whiteSpace=wrap;connectable=0;overflow=hidden;fillColor=none;top=0;left=0;bottom=0;right=0;fontFamily=Comic Sans MS;fontSize=20;strokeColor=#457B9D;fontColor=#1D3557;" parent="W68XGSMgtEbUcB7ZqFCw-5" vertex="1">
          <mxGeometry x="150" width="210" height="40" as="geometry" />
        </mxCell>
        <mxCell id="W68XGSMgtEbUcB7ZqFCw-8" value="" style="shape=partialRectangle;html=1;whiteSpace=wrap;collapsible=0;dropTarget=0;pointerEvents=0;fillColor=none;top=0;left=0;bottom=0;right=0;points=[[0,0.5],[1,0.5]];portConstraint=eastwest;fontFamily=Comic Sans MS;fontSize=20;strokeColor=#457B9D;fontColor=#1D3557;" parent="W68XGSMgtEbUcB7ZqFCw-1" vertex="1">
          <mxGeometry y="80" width="360" height="50" as="geometry" />
        </mxCell>
        <mxCell id="W68XGSMgtEbUcB7ZqFCw-9" value="&lt;span&gt;{userid:111}&lt;/span&gt;" style="shape=partialRectangle;html=1;whiteSpace=wrap;connectable=0;overflow=hidden;fillColor=none;top=0;left=0;bottom=0;right=0;fontFamily=Comic Sans MS;fontSize=20;strokeColor=#457B9D;fontColor=#1D3557;" parent="W68XGSMgtEbUcB7ZqFCw-8" vertex="1">
          <mxGeometry width="150" height="50" as="geometry" />
        </mxCell>
        <mxCell id="W68XGSMgtEbUcB7ZqFCw-10" value="&lt;span&gt;{pageid:2,age:25}&lt;/span&gt;" style="shape=partialRectangle;html=1;whiteSpace=wrap;connectable=0;overflow=hidden;fillColor=none;top=0;left=0;bottom=0;right=0;fontFamily=Comic Sans MS;fontSize=20;strokeColor=#457B9D;fontColor=#1D3557;" parent="W68XGSMgtEbUcB7ZqFCw-8" vertex="1">
          <mxGeometry x="150" width="210" height="50" as="geometry" />
        </mxCell>
        <mxCell id="W68XGSMgtEbUcB7ZqFCw-14" value="" style="shape=table;html=1;whiteSpace=wrap;startSize=0;container=1;collapsible=0;childLayout=tableLayout;fontFamily=Comic Sans MS;fontSize=20;fillColor=#A8DADC;strokeColor=#457B9D;fontColor=#1D3557;" parent="3IWHOSCsguQhji0tG3W4-1" vertex="1">
          <mxGeometry x="152" y="553" width="360" height="120" as="geometry" />
        </mxCell>
        <mxCell id="W68XGSMgtEbUcB7ZqFCw-15" value="" style="shape=partialRectangle;html=1;whiteSpace=wrap;collapsible=0;dropTarget=0;pointerEvents=0;fillColor=none;top=0;left=0;bottom=0;right=0;points=[[0,0.5],[1,0.5]];portConstraint=eastwest;fontFamily=Comic Sans MS;fontSize=20;strokeColor=#457B9D;fontColor=#1D3557;" parent="W68XGSMgtEbUcB7ZqFCw-14" vertex="1">
          <mxGeometry width="360" height="40" as="geometry" />
        </mxCell>
        <mxCell id="W68XGSMgtEbUcB7ZqFCw-16" value="key" style="shape=partialRectangle;html=1;whiteSpace=wrap;connectable=0;overflow=hidden;fillColor=none;top=0;left=0;bottom=0;right=0;fontFamily=Comic Sans MS;fontSize=20;strokeColor=#457B9D;fontColor=#1D3557;" parent="W68XGSMgtEbUcB7ZqFCw-15" vertex="1">
          <mxGeometry width="140" height="40" as="geometry" />
        </mxCell>
        <mxCell id="W68XGSMgtEbUcB7ZqFCw-17" value="value" style="shape=partialRectangle;html=1;whiteSpace=wrap;connectable=0;overflow=hidden;fillColor=none;top=0;left=0;bottom=0;right=0;fontFamily=Comic Sans MS;fontSize=20;strokeColor=#457B9D;fontColor=#1D3557;" parent="W68XGSMgtEbUcB7ZqFCw-15" vertex="1">
          <mxGeometry x="140" width="220" height="40" as="geometry" />
        </mxCell>
        <mxCell id="W68XGSMgtEbUcB7ZqFCw-18" value="" style="shape=partialRectangle;html=1;whiteSpace=wrap;collapsible=0;dropTarget=0;pointerEvents=0;fillColor=none;top=0;left=0;bottom=0;right=0;points=[[0,0.5],[1,0.5]];portConstraint=eastwest;fontFamily=Comic Sans MS;fontSize=20;strokeColor=#457B9D;fontColor=#1D3557;" parent="W68XGSMgtEbUcB7ZqFCw-14" vertex="1">
          <mxGeometry y="40" width="360" height="40" as="geometry" />
        </mxCell>
        <mxCell id="W68XGSMgtEbUcB7ZqFCw-19" value="{userid:111}" style="shape=partialRectangle;html=1;whiteSpace=wrap;connectable=0;overflow=hidden;fillColor=none;top=0;left=0;bottom=0;right=0;fontFamily=Comic Sans MS;fontSize=20;strokeColor=#457B9D;fontColor=#1D3557;" parent="W68XGSMgtEbUcB7ZqFCw-18" vertex="1">
          <mxGeometry width="140" height="40" as="geometry" />
        </mxCell>
        <mxCell id="W68XGSMgtEbUcB7ZqFCw-20" value="{table:2, age:25}" style="shape=partialRectangle;html=1;whiteSpace=wrap;connectable=0;overflow=hidden;fillColor=none;top=0;left=0;bottom=0;right=0;fontFamily=Comic Sans MS;fontSize=20;strokeColor=#457B9D;fontColor=#1D3557;" parent="W68XGSMgtEbUcB7ZqFCw-18" vertex="1">
          <mxGeometry x="140" width="220" height="40" as="geometry" />
        </mxCell>
        <mxCell id="W68XGSMgtEbUcB7ZqFCw-21" value="" style="shape=partialRectangle;html=1;whiteSpace=wrap;collapsible=0;dropTarget=0;pointerEvents=0;fillColor=none;top=0;left=0;bottom=0;right=0;points=[[0,0.5],[1,0.5]];portConstraint=eastwest;fontFamily=Comic Sans MS;fontSize=20;strokeColor=#457B9D;fontColor=#1D3557;" parent="W68XGSMgtEbUcB7ZqFCw-14" vertex="1">
          <mxGeometry y="80" width="360" height="40" as="geometry" />
        </mxCell>
        <mxCell id="W68XGSMgtEbUcB7ZqFCw-22" value="{userid:222}" style="shape=partialRectangle;html=1;whiteSpace=wrap;connectable=0;overflow=hidden;fillColor=none;top=0;left=0;bottom=0;right=0;fontFamily=Comic Sans MS;fontSize=20;strokeColor=#457B9D;fontColor=#1D3557;" parent="W68XGSMgtEbUcB7ZqFCw-21" vertex="1">
          <mxGeometry width="140" height="40" as="geometry" />
        </mxCell>
        <mxCell id="W68XGSMgtEbUcB7ZqFCw-23" value="{table:2, age:32}" style="shape=partialRectangle;html=1;whiteSpace=wrap;connectable=0;overflow=hidden;fillColor=none;top=0;left=0;bottom=0;right=0;fontFamily=Comic Sans MS;fontSize=20;strokeColor=#457B9D;fontColor=#1D3557;" parent="W68XGSMgtEbUcB7ZqFCw-21" vertex="1">
          <mxGeometry x="140" width="220" height="40" as="geometry" />
        </mxCell>
        <mxCell id="W68XGSMgtEbUcB7ZqFCw-24" value="" style="shape=flexArrow;endArrow=classic;html=1;fontFamily=Comic Sans MS;fontSize=20;width=13;endSize=7;labelBackgroundColor=#F1FAEE;strokeColor=#457B9D;fontColor=#1D3557;" parent="3IWHOSCsguQhji0tG3W4-1" edge="1">
          <mxGeometry width="50" height="50" relative="1" as="geometry">
            <mxPoint x="553" y="312.5" as="sourcePoint" />
            <mxPoint x="643" y="312.5" as="targetPoint" />
          </mxGeometry>
        </mxCell>
        <mxCell id="W68XGSMgtEbUcB7ZqFCw-25" value="reduce" style="text;strokeColor=none;fillColor=none;html=1;fontSize=34;fontStyle=1;verticalAlign=middle;align=center;fontColor=#1D3557;fontFamily=Comic Sans MS;" parent="3IWHOSCsguQhji0tG3W4-1" vertex="1">
          <mxGeometry x="553" y="423" width="100" height="40" as="geometry" />
        </mxCell>
        <mxCell id="W68XGSMgtEbUcB7ZqFCw-26" value="" style="shape=flexArrow;endArrow=classic;html=1;fontFamily=Comic Sans MS;fontSize=20;width=13;endSize=7;labelBackgroundColor=#F1FAEE;strokeColor=#457B9D;fontColor=#1D3557;" parent="3IWHOSCsguQhji0tG3W4-1" edge="1">
          <mxGeometry width="50" height="50" relative="1" as="geometry">
            <mxPoint x="558" y="602.5" as="sourcePoint" />
            <mxPoint x="648" y="602.5" as="targetPoint" />
          </mxGeometry>
        </mxCell>
        <mxCell id="W68XGSMgtEbUcB7ZqFCw-27" value="" style="shape=table;html=1;whiteSpace=wrap;startSize=0;container=1;collapsible=0;childLayout=tableLayout;fontFamily=Comic Sans MS;fontSize=20;fillColor=#A8DADC;strokeColor=#457B9D;fontColor=#1D3557;" parent="3IWHOSCsguQhji0tG3W4-1" vertex="1">
          <mxGeometry x="664" y="548" width="360" height="80" as="geometry" />
        </mxCell>
        <mxCell id="W68XGSMgtEbUcB7ZqFCw-28" value="" style="shape=partialRectangle;html=1;whiteSpace=wrap;collapsible=0;dropTarget=0;pointerEvents=0;fillColor=none;top=0;left=0;bottom=0;right=0;points=[[0,0.5],[1,0.5]];portConstraint=eastwest;fontFamily=Comic Sans MS;fontSize=20;strokeColor=#457B9D;fontColor=#1D3557;" parent="W68XGSMgtEbUcB7ZqFCw-27" vertex="1">
          <mxGeometry width="360" height="40" as="geometry" />
        </mxCell>
        <mxCell id="W68XGSMgtEbUcB7ZqFCw-29" value="key" style="shape=partialRectangle;html=1;whiteSpace=wrap;connectable=0;overflow=hidden;fillColor=none;top=0;left=0;bottom=0;right=0;fontFamily=Comic Sans MS;fontSize=20;strokeColor=#457B9D;fontColor=#1D3557;" parent="W68XGSMgtEbUcB7ZqFCw-28" vertex="1">
          <mxGeometry width="140" height="40" as="geometry" />
        </mxCell>
        <mxCell id="W68XGSMgtEbUcB7ZqFCw-30" value="value" style="shape=partialRectangle;html=1;whiteSpace=wrap;connectable=0;overflow=hidden;fillColor=none;top=0;left=0;bottom=0;right=0;fontFamily=Comic Sans MS;fontSize=20;strokeColor=#457B9D;fontColor=#1D3557;" parent="W68XGSMgtEbUcB7ZqFCw-28" vertex="1">
          <mxGeometry x="140" width="220" height="40" as="geometry" />
        </mxCell>
        <mxCell id="W68XGSMgtEbUcB7ZqFCw-31" value="" style="shape=partialRectangle;html=1;whiteSpace=wrap;collapsible=0;dropTarget=0;pointerEvents=0;fillColor=none;top=0;left=0;bottom=0;right=0;points=[[0,0.5],[1,0.5]];portConstraint=eastwest;fontFamily=Comic Sans MS;fontSize=20;strokeColor=#457B9D;fontColor=#1D3557;" parent="W68XGSMgtEbUcB7ZqFCw-27" vertex="1">
          <mxGeometry y="40" width="360" height="40" as="geometry" />
        </mxCell>
        <mxCell id="W68XGSMgtEbUcB7ZqFCw-32" value="{userid:222}" style="shape=partialRectangle;html=1;whiteSpace=wrap;connectable=0;overflow=hidden;fillColor=none;top=0;left=0;bottom=0;right=0;fontFamily=Comic Sans MS;fontSize=20;strokeColor=#457B9D;fontColor=#1D3557;" parent="W68XGSMgtEbUcB7ZqFCw-31" vertex="1">
          <mxGeometry width="140" height="40" as="geometry" />
        </mxCell>
        <mxCell id="W68XGSMgtEbUcB7ZqFCw-33" value="&lt;span&gt;{pageid:1,age:32}&lt;/span&gt;" style="shape=partialRectangle;html=1;whiteSpace=wrap;connectable=0;overflow=hidden;fillColor=none;top=0;left=0;bottom=0;right=0;fontFamily=Comic Sans MS;fontSize=20;strokeColor=#457B9D;fontColor=#1D3557;" parent="W68XGSMgtEbUcB7ZqFCw-31" vertex="1">
          <mxGeometry x="140" width="220" height="40" as="geometry" />
        </mxCell>
        <mxCell id="W68XGSMgtEbUcB7ZqFCw-37" value="" style="shape=table;html=1;whiteSpace=wrap;startSize=0;container=1;collapsible=0;childLayout=tableLayout;fontFamily=Comic Sans MS;fontSize=20;fillColor=#A8DADC;strokeColor=#457B9D;fontColor=#1D3557;" parent="3IWHOSCsguQhji0tG3W4-1" vertex="1">
          <mxGeometry x="152" y="243" width="360" height="160" as="geometry" />
        </mxCell>
        <mxCell id="W68XGSMgtEbUcB7ZqFCw-38" value="" style="shape=partialRectangle;html=1;whiteSpace=wrap;collapsible=0;dropTarget=0;pointerEvents=0;fillColor=none;top=0;left=0;bottom=0;right=0;points=[[0,0.5],[1,0.5]];portConstraint=eastwest;fontFamily=Comic Sans MS;fontSize=20;strokeColor=#457B9D;fontColor=#1D3557;" parent="W68XGSMgtEbUcB7ZqFCw-37" vertex="1">
          <mxGeometry width="360" height="40" as="geometry" />
        </mxCell>
        <mxCell id="W68XGSMgtEbUcB7ZqFCw-39" value="key" style="shape=partialRectangle;html=1;whiteSpace=wrap;connectable=0;overflow=hidden;fillColor=none;top=0;left=0;bottom=0;right=0;fontFamily=Comic Sans MS;fontSize=20;strokeColor=#457B9D;fontColor=#1D3557;" parent="W68XGSMgtEbUcB7ZqFCw-38" vertex="1">
          <mxGeometry width="150" height="40" as="geometry" />
        </mxCell>
        <mxCell id="W68XGSMgtEbUcB7ZqFCw-40" value="value" style="shape=partialRectangle;html=1;whiteSpace=wrap;connectable=0;overflow=hidden;fillColor=none;top=0;left=0;bottom=0;right=0;fontFamily=Comic Sans MS;fontSize=20;strokeColor=#457B9D;fontColor=#1D3557;" parent="W68XGSMgtEbUcB7ZqFCw-38" vertex="1">
          <mxGeometry x="150" width="210" height="40" as="geometry" />
        </mxCell>
        <mxCell id="W68XGSMgtEbUcB7ZqFCw-41" value="" style="shape=partialRectangle;html=1;whiteSpace=wrap;collapsible=0;dropTarget=0;pointerEvents=0;fillColor=none;top=0;left=0;bottom=0;right=0;points=[[0,0.5],[1,0.5]];portConstraint=eastwest;fontFamily=Comic Sans MS;fontSize=20;strokeColor=#457B9D;fontColor=#1D3557;" parent="W68XGSMgtEbUcB7ZqFCw-37" vertex="1">
          <mxGeometry y="40" width="360" height="40" as="geometry" />
        </mxCell>
        <mxCell id="W68XGSMgtEbUcB7ZqFCw-42" value="{userid:111}" style="shape=partialRectangle;html=1;whiteSpace=wrap;connectable=0;overflow=hidden;fillColor=none;top=0;left=0;bottom=0;right=0;fontFamily=Comic Sans MS;fontSize=20;strokeColor=#457B9D;fontColor=#1D3557;" parent="W68XGSMgtEbUcB7ZqFCw-41" vertex="1">
          <mxGeometry width="150" height="40" as="geometry" />
        </mxCell>
        <mxCell id="W68XGSMgtEbUcB7ZqFCw-43" value="{table:1,pageid:1}" style="shape=partialRectangle;html=1;whiteSpace=wrap;connectable=0;overflow=hidden;fillColor=none;top=0;left=0;bottom=0;right=0;fontFamily=Comic Sans MS;fontSize=20;strokeColor=#457B9D;fontColor=#1D3557;" parent="W68XGSMgtEbUcB7ZqFCw-41" vertex="1">
          <mxGeometry x="150" width="210" height="40" as="geometry" />
        </mxCell>
        <mxCell id="W68XGSMgtEbUcB7ZqFCw-44" value="" style="shape=partialRectangle;html=1;whiteSpace=wrap;collapsible=0;dropTarget=0;pointerEvents=0;fillColor=none;top=0;left=0;bottom=0;right=0;points=[[0,0.5],[1,0.5]];portConstraint=eastwest;fontFamily=Comic Sans MS;fontSize=20;strokeColor=#457B9D;fontColor=#1D3557;" parent="W68XGSMgtEbUcB7ZqFCw-37" vertex="1">
          <mxGeometry y="80" width="360" height="40" as="geometry" />
        </mxCell>
        <mxCell id="W68XGSMgtEbUcB7ZqFCw-45" value="{userid:111}" style="shape=partialRectangle;html=1;whiteSpace=wrap;connectable=0;overflow=hidden;fillColor=none;top=0;left=0;bottom=0;right=0;fontFamily=Comic Sans MS;fontSize=20;strokeColor=#457B9D;fontColor=#1D3557;" parent="W68XGSMgtEbUcB7ZqFCw-44" vertex="1">
          <mxGeometry width="150" height="40" as="geometry" />
        </mxCell>
        <mxCell id="W68XGSMgtEbUcB7ZqFCw-46" value="&lt;span&gt;{table:1,pageid:2}&lt;/span&gt;" style="shape=partialRectangle;html=1;whiteSpace=wrap;connectable=0;overflow=hidden;fillColor=none;top=0;left=0;bottom=0;right=0;fontFamily=Comic Sans MS;fontSize=20;strokeColor=#457B9D;fontColor=#1D3557;" parent="W68XGSMgtEbUcB7ZqFCw-44" vertex="1">
          <mxGeometry x="150" width="210" height="40" as="geometry" />
        </mxCell>
        <mxCell id="W68XGSMgtEbUcB7ZqFCw-47" value="" style="shape=partialRectangle;html=1;whiteSpace=wrap;collapsible=0;dropTarget=0;pointerEvents=0;fillColor=none;top=0;left=0;bottom=0;right=0;points=[[0,0.5],[1,0.5]];portConstraint=eastwest;fontFamily=Comic Sans MS;fontSize=20;strokeColor=#457B9D;fontColor=#1D3557;" parent="W68XGSMgtEbUcB7ZqFCw-37" vertex="1">
          <mxGeometry y="120" width="360" height="40" as="geometry" />
        </mxCell>
        <mxCell id="W68XGSMgtEbUcB7ZqFCw-48" value="{userid:222}" style="shape=partialRectangle;html=1;whiteSpace=wrap;connectable=0;overflow=hidden;fillColor=none;top=0;left=0;bottom=0;right=0;fontFamily=Comic Sans MS;fontSize=20;strokeColor=#457B9D;fontColor=#1D3557;" parent="W68XGSMgtEbUcB7ZqFCw-47" vertex="1">
          <mxGeometry width="150" height="40" as="geometry" />
        </mxCell>
        <mxCell id="W68XGSMgtEbUcB7ZqFCw-49" value="{table:1,pageid:1}" style="shape=partialRectangle;html=1;whiteSpace=wrap;connectable=0;overflow=hidden;fillColor=none;top=0;left=0;bottom=0;right=0;fontFamily=Comic Sans MS;fontSize=20;strokeColor=#457B9D;fontColor=#1D3557;" parent="W68XGSMgtEbUcB7ZqFCw-47" vertex="1">
          <mxGeometry x="150" width="210" height="40" as="geometry" />
        </mxCell>
        <mxCell id="W68XGSMgtEbUcB7ZqFCw-50" value="&lt;h1&gt;output&lt;/h1&gt;&lt;p&gt;&lt;br&gt;&lt;/p&gt;" style="text;html=1;strokeColor=none;fillColor=none;spacing=5;spacingTop=-20;whiteSpace=wrap;overflow=hidden;rounded=0;fontFamily=Comic Sans MS;fontSize=20;align=center;fontColor=#1D3557;" parent="3IWHOSCsguQhji0tG3W4-1" vertex="1">
          <mxGeometry x="664" y="98" width="280" height="120" as="geometry" />
        </mxCell>
      </root>
    </mxGraphModel>
  </diagram>
</mxfile>
